<mxfile host="app.diagrams.net" modified="2024-02-13T22:22:32.555Z" agent="Mozilla/5.0 (Windows NT 10.0; Win64; x64; rv:122.0) Gecko/20100101 Firefox/122.0" etag="qmW5jApm3OKfb_a8n2Tq" version="23.1.4" type="device">
  <diagram name="Page-1" id="RMpgMSAO8KhYpteEXMV6">
    <mxGraphModel dx="3325" dy="1331" grid="1" gridSize="10" guides="1" tooltips="1" connect="1" arrows="1" fold="1" page="1" pageScale="1" pageWidth="827" pageHeight="1169" math="0" shadow="0">
      <root>
        <mxCell id="0" />
        <mxCell id="1" parent="0" />
        <mxCell id="gojzqPuIl76T890AtQHA-1" value="&lt;h1&gt;Cadena de &lt;font color=&quot;#3399ff&quot;&gt;Televisión&lt;/font&gt;&lt;/h1&gt;&lt;div&gt;&lt;i&gt;&lt;font style=&quot;font-size: 14px;&quot;&gt;Tema 3 - Entrega 3 : Diseño Físico de Base de Datos&lt;/font&gt;&lt;/i&gt;&lt;br&gt;&lt;/div&gt;&lt;div&gt;&lt;br&gt;&lt;/div&gt;&lt;div align=&quot;center&quot; style=&quot;font-size: 10px;&quot;&gt;López Rey, Andy&lt;br&gt;&lt;/div&gt;&lt;p&gt;&lt;br&gt;&lt;font style=&quot;font-size: 10px;&quot;&gt;Diagrama Entidad-Relación Extendido&lt;br&gt;Modelo Relacional Normalizado&lt;/font&gt;&lt;br&gt;&lt;/p&gt;&lt;p&gt;&lt;br&gt;&lt;/p&gt;&lt;p&gt;&lt;br&gt;&lt;/p&gt;" style="text;html=1;strokeColor=none;fillColor=none;spacing=5;spacingTop=-20;whiteSpace=wrap;overflow=hidden;rounded=0;align=center;" vertex="1" parent="1">
          <mxGeometry x="214" y="10" width="400" height="160" as="geometry" />
        </mxCell>
        <mxCell id="gojzqPuIl76T890AtQHA-2" value="Directivo&lt;span style=&quot;white-space: pre;&quot;&gt;&#x9;&lt;/span&gt;" style="html=1;dashed=0;whiteSpace=wrap;fillColor=#dae8fc;strokeColor=#6c8ebf;" vertex="1" parent="1">
          <mxGeometry x="54" y="750" width="120" height="50" as="geometry" />
        </mxCell>
        <mxCell id="gojzqPuIl76T890AtQHA-3" value="Contrata" style="shape=rhombus;html=1;dashed=0;whiteSpace=wrap;perimeter=rhombusPerimeter;fillColor=#fff2cc;strokeColor=#d6b656;fontSize=8;" vertex="1" parent="1">
          <mxGeometry x="384" y="375" width="60" height="50" as="geometry" />
        </mxCell>
        <mxCell id="gojzqPuIl76T890AtQHA-7" value="Empleado" style="html=1;dashed=0;whiteSpace=wrap;fillColor=#dae8fc;strokeColor=#6c8ebf;" vertex="1" parent="1">
          <mxGeometry x="354" y="480" width="120" height="50" as="geometry" />
        </mxCell>
        <mxCell id="gojzqPuIl76T890AtQHA-8" value="Presentador" style="html=1;dashed=0;whiteSpace=wrap;fillColor=#dae8fc;strokeColor=#6c8ebf;" vertex="1" parent="1">
          <mxGeometry x="254" y="750" width="120" height="50" as="geometry" />
        </mxCell>
        <mxCell id="gojzqPuIl76T890AtQHA-9" value="Técnico" style="html=1;dashed=0;whiteSpace=wrap;fillColor=#dae8fc;strokeColor=#6c8ebf;" vertex="1" parent="1">
          <mxGeometry x="454" y="750" width="120" height="50" as="geometry" />
        </mxCell>
        <mxCell id="gojzqPuIl76T890AtQHA-10" value="Periodista" style="html=1;dashed=0;whiteSpace=wrap;fillColor=#dae8fc;strokeColor=#6c8ebf;" vertex="1" parent="1">
          <mxGeometry x="654" y="750" width="120" height="50" as="geometry" />
        </mxCell>
        <mxCell id="gojzqPuIl76T890AtQHA-12" style="edgeStyle=orthogonalEdgeStyle;rounded=0;orthogonalLoop=1;jettySize=auto;html=1;exitX=1;exitY=0.5;exitDx=0;exitDy=0;entryX=0;entryY=0.5;entryDx=0;entryDy=0;" edge="1" parent="1" source="gojzqPuIl76T890AtQHA-17" target="gojzqPuIl76T890AtQHA-15">
          <mxGeometry relative="1" as="geometry" />
        </mxCell>
        <mxCell id="gojzqPuIl76T890AtQHA-13" style="edgeStyle=orthogonalEdgeStyle;rounded=0;orthogonalLoop=1;jettySize=auto;html=1;exitX=1;exitY=0.5;exitDx=0;exitDy=0;entryX=0.5;entryY=0;entryDx=0;entryDy=0;" edge="1" parent="1" source="gojzqPuIl76T890AtQHA-15" target="gojzqPuIl76T890AtQHA-10">
          <mxGeometry relative="1" as="geometry">
            <mxPoint x="494" y="721" as="targetPoint" />
            <Array as="points">
              <mxPoint x="414" y="700" />
              <mxPoint x="714" y="700" />
            </Array>
          </mxGeometry>
        </mxCell>
        <mxCell id="gojzqPuIl76T890AtQHA-14" style="edgeStyle=orthogonalEdgeStyle;rounded=0;orthogonalLoop=1;jettySize=auto;html=1;exitX=1;exitY=0.5;exitDx=0;exitDy=0;entryX=0.46;entryY=0.017;entryDx=0;entryDy=0;entryPerimeter=0;" edge="1" parent="1" source="gojzqPuIl76T890AtQHA-15" target="gojzqPuIl76T890AtQHA-2">
          <mxGeometry relative="1" as="geometry">
            <mxPoint x="334" y="721" as="targetPoint" />
            <Array as="points">
              <mxPoint x="414" y="700" />
              <mxPoint x="109" y="700" />
            </Array>
          </mxGeometry>
        </mxCell>
        <mxCell id="gojzqPuIl76T890AtQHA-15" value="" style="triangle;whiteSpace=wrap;html=1;fillColor=#dae8fc;strokeColor=#6c8ebf;rotation=90;" vertex="1" parent="1">
          <mxGeometry x="384" y="601" width="60" height="80" as="geometry" />
        </mxCell>
        <mxCell id="gojzqPuIl76T890AtQHA-16" value="" style="edgeStyle=orthogonalEdgeStyle;rounded=0;orthogonalLoop=1;jettySize=auto;html=1;exitX=0.5;exitY=1;exitDx=0;exitDy=0;entryX=0;entryY=0.5;entryDx=0;entryDy=0;" edge="1" parent="1" target="gojzqPuIl76T890AtQHA-17">
          <mxGeometry relative="1" as="geometry">
            <mxPoint x="414" y="531" as="sourcePoint" />
            <mxPoint x="414" y="551" as="targetPoint" />
          </mxGeometry>
        </mxCell>
        <mxCell id="gojzqPuIl76T890AtQHA-17" value="" style="ellipse;whiteSpace=wrap;html=1;fillColor=#dae8fc;strokeColor=#6c8ebf;rotation=90;" vertex="1" parent="1">
          <mxGeometry x="399" y="551" width="30" height="20" as="geometry" />
        </mxCell>
        <mxCell id="gojzqPuIl76T890AtQHA-20" value="" style="curved=1;endArrow=classic;html=1;rounded=0;" edge="1" parent="1">
          <mxGeometry width="50" height="50" relative="1" as="geometry">
            <mxPoint x="399" y="671" as="sourcePoint" />
            <mxPoint x="439" y="671" as="targetPoint" />
            <Array as="points">
              <mxPoint x="409" y="721" />
              <mxPoint x="419" y="721" />
              <mxPoint x="439" y="661" />
            </Array>
          </mxGeometry>
        </mxCell>
        <mxCell id="gojzqPuIl76T890AtQHA-31" value="" style="endArrow=classic;html=1;rounded=0;entryX=0.5;entryY=0;entryDx=0;entryDy=0;" edge="1" parent="1" target="gojzqPuIl76T890AtQHA-8">
          <mxGeometry width="50" height="50" relative="1" as="geometry">
            <mxPoint x="314" y="700" as="sourcePoint" />
            <mxPoint x="414" y="690" as="targetPoint" />
          </mxGeometry>
        </mxCell>
        <mxCell id="gojzqPuIl76T890AtQHA-32" value="" style="endArrow=classic;html=1;rounded=0;entryX=0.5;entryY=0;entryDx=0;entryDy=0;" edge="1" parent="1">
          <mxGeometry width="50" height="50" relative="1" as="geometry">
            <mxPoint x="513.86" y="700" as="sourcePoint" />
            <mxPoint x="513.86" y="750" as="targetPoint" />
          </mxGeometry>
        </mxCell>
        <mxCell id="gojzqPuIl76T890AtQHA-33" value="Canal" style="html=1;dashed=0;whiteSpace=wrap;fillColor=#dae8fc;strokeColor=#6c8ebf;" vertex="1" parent="1">
          <mxGeometry x="354" y="270" width="120" height="50" as="geometry" />
        </mxCell>
        <mxCell id="gojzqPuIl76T890AtQHA-34" value="" style="endArrow=none;html=1;rounded=0;exitX=0.5;exitY=1;exitDx=0;exitDy=0;entryX=0.5;entryY=0;entryDx=0;entryDy=0;" edge="1" parent="1" source="gojzqPuIl76T890AtQHA-33" target="gojzqPuIl76T890AtQHA-3">
          <mxGeometry relative="1" as="geometry">
            <mxPoint x="404" y="550" as="sourcePoint" />
            <mxPoint x="564" y="550" as="targetPoint" />
          </mxGeometry>
        </mxCell>
        <mxCell id="gojzqPuIl76T890AtQHA-46" value="1:N" style="edgeLabel;html=1;align=center;verticalAlign=middle;resizable=0;points=[];" vertex="1" connectable="0" parent="gojzqPuIl76T890AtQHA-34">
          <mxGeometry x="-0.0857" y="-1" relative="1" as="geometry">
            <mxPoint as="offset" />
          </mxGeometry>
        </mxCell>
        <mxCell id="gojzqPuIl76T890AtQHA-35" value="" style="endArrow=none;html=1;rounded=0;exitX=0.5;exitY=0;exitDx=0;exitDy=0;entryX=0.5;entryY=1;entryDx=0;entryDy=0;" edge="1" parent="1" source="gojzqPuIl76T890AtQHA-7" target="gojzqPuIl76T890AtQHA-3">
          <mxGeometry relative="1" as="geometry">
            <mxPoint x="424" y="330" as="sourcePoint" />
            <mxPoint x="424" y="385" as="targetPoint" />
          </mxGeometry>
        </mxCell>
        <mxCell id="gojzqPuIl76T890AtQHA-47" value="1:M" style="edgeLabel;html=1;align=center;verticalAlign=middle;resizable=0;points=[];" vertex="1" connectable="0" parent="gojzqPuIl76T890AtQHA-35">
          <mxGeometry x="0.2156" y="-2" relative="1" as="geometry">
            <mxPoint as="offset" />
          </mxGeometry>
        </mxCell>
        <mxCell id="gojzqPuIl76T890AtQHA-36" value="ID_Canal" style="ellipse;whiteSpace=wrap;html=1;align=center;fillColor=#f8cecc;strokeColor=#b85450;" vertex="1" parent="1">
          <mxGeometry x="264" y="200" width="100" height="40" as="geometry" />
        </mxCell>
        <mxCell id="gojzqPuIl76T890AtQHA-37" value="Nombre" style="ellipse;whiteSpace=wrap;html=1;align=center;fillColor=#d5e8d4;strokeColor=#82b366;" vertex="1" parent="1">
          <mxGeometry x="364" y="200" width="100" height="40" as="geometry" />
        </mxCell>
        <mxCell id="gojzqPuIl76T890AtQHA-38" value="Fecha" style="ellipse;whiteSpace=wrap;html=1;align=center;fillColor=#d5e8d4;strokeColor=#82b366;" vertex="1" parent="1">
          <mxGeometry x="464" y="200" width="100" height="40" as="geometry" />
        </mxCell>
        <mxCell id="gojzqPuIl76T890AtQHA-48" value="Fecha_Inicio" style="ellipse;whiteSpace=wrap;html=1;align=center;fillColor=#d5e8d4;strokeColor=#82b366;" vertex="1" parent="1">
          <mxGeometry x="480" y="340" width="100" height="40" as="geometry" />
        </mxCell>
        <mxCell id="gojzqPuIl76T890AtQHA-49" value="Fecha_Fin" style="ellipse;whiteSpace=wrap;html=1;align=center;fillColor=#d5e8d4;strokeColor=#82b366;" vertex="1" parent="1">
          <mxGeometry x="480" y="380" width="100" height="40" as="geometry" />
        </mxCell>
        <mxCell id="gojzqPuIl76T890AtQHA-50" value="Tipo_Canal" style="ellipse;whiteSpace=wrap;html=1;align=center;fillColor=#d5e8d4;strokeColor=#82b366;" vertex="1" parent="1">
          <mxGeometry x="480" y="420" width="100" height="40" as="geometry" />
        </mxCell>
        <mxCell id="gojzqPuIl76T890AtQHA-51" value="" style="endArrow=none;html=1;rounded=0;exitX=1;exitY=0.5;exitDx=0;exitDy=0;entryX=0;entryY=0.5;entryDx=0;entryDy=0;" edge="1" parent="1" source="gojzqPuIl76T890AtQHA-3" target="gojzqPuIl76T890AtQHA-48">
          <mxGeometry relative="1" as="geometry">
            <mxPoint x="360" y="420" as="sourcePoint" />
            <mxPoint x="520" y="420" as="targetPoint" />
          </mxGeometry>
        </mxCell>
        <mxCell id="gojzqPuIl76T890AtQHA-52" value="" style="endArrow=none;html=1;rounded=0;exitX=1;exitY=0.5;exitDx=0;exitDy=0;" edge="1" parent="1" source="gojzqPuIl76T890AtQHA-3" target="gojzqPuIl76T890AtQHA-49">
          <mxGeometry relative="1" as="geometry">
            <mxPoint x="454" y="410" as="sourcePoint" />
            <mxPoint x="530" y="430" as="targetPoint" />
          </mxGeometry>
        </mxCell>
        <mxCell id="gojzqPuIl76T890AtQHA-53" value="" style="endArrow=none;html=1;rounded=0;exitX=1;exitY=0.5;exitDx=0;exitDy=0;entryX=0;entryY=0.5;entryDx=0;entryDy=0;" edge="1" parent="1" source="gojzqPuIl76T890AtQHA-3" target="gojzqPuIl76T890AtQHA-50">
          <mxGeometry relative="1" as="geometry">
            <mxPoint x="454" y="410" as="sourcePoint" />
            <mxPoint x="460" y="450" as="targetPoint" />
          </mxGeometry>
        </mxCell>
        <mxCell id="gojzqPuIl76T890AtQHA-55" value="Teléfono" style="ellipse;shape=doubleEllipse;margin=3;whiteSpace=wrap;html=1;align=center;fillColor=#d5e8d4;strokeColor=#82b366;" vertex="1" parent="1">
          <mxGeometry x="640" y="445" width="100" height="40" as="geometry" />
        </mxCell>
        <mxCell id="gojzqPuIl76T890AtQHA-56" value="Email" style="ellipse;shape=doubleEllipse;margin=3;whiteSpace=wrap;html=1;align=center;fillColor=#d5e8d4;strokeColor=#82b366;" vertex="1" parent="1">
          <mxGeometry x="640" y="525" width="100" height="40" as="geometry" />
        </mxCell>
        <mxCell id="gojzqPuIl76T890AtQHA-57" value="" style="endArrow=none;html=1;rounded=0;exitX=1;exitY=0.5;exitDx=0;exitDy=0;" edge="1" parent="1" source="gojzqPuIl76T890AtQHA-7">
          <mxGeometry relative="1" as="geometry">
            <mxPoint x="470" y="540" as="sourcePoint" />
            <mxPoint x="600" y="505" as="targetPoint" />
          </mxGeometry>
        </mxCell>
        <mxCell id="gojzqPuIl76T890AtQHA-60" value="" style="endArrow=none;html=1;rounded=0;entryX=0;entryY=0.5;entryDx=0;entryDy=0;" edge="1" parent="1">
          <mxGeometry relative="1" as="geometry">
            <mxPoint x="600" y="544.92" as="sourcePoint" />
            <mxPoint x="640" y="544.92" as="targetPoint" />
          </mxGeometry>
        </mxCell>
        <mxCell id="gojzqPuIl76T890AtQHA-63" value="" style="endArrow=none;html=1;rounded=0;" edge="1" parent="1">
          <mxGeometry relative="1" as="geometry">
            <mxPoint x="600" y="465" as="sourcePoint" />
            <mxPoint x="600" y="545" as="targetPoint" />
          </mxGeometry>
        </mxCell>
        <mxCell id="gojzqPuIl76T890AtQHA-65" value="" style="endArrow=none;html=1;rounded=0;entryX=0;entryY=0.5;entryDx=0;entryDy=0;" edge="1" parent="1">
          <mxGeometry relative="1" as="geometry">
            <mxPoint x="600" y="464.91999999999996" as="sourcePoint" />
            <mxPoint x="640" y="464.91999999999996" as="targetPoint" />
          </mxGeometry>
        </mxCell>
        <mxCell id="gojzqPuIl76T890AtQHA-66" value="DNI" style="ellipse;whiteSpace=wrap;html=1;align=center;fillColor=#f8cecc;strokeColor=#b85450;" vertex="1" parent="1">
          <mxGeometry x="20" y="405" width="100" height="40" as="geometry" />
        </mxCell>
        <mxCell id="gojzqPuIl76T890AtQHA-67" value="Nº_SS" style="ellipse;whiteSpace=wrap;html=1;align=center;fillColor=#d5e8d4;strokeColor=#82b366;" vertex="1" parent="1">
          <mxGeometry x="20" y="445" width="100" height="40" as="geometry" />
        </mxCell>
        <mxCell id="gojzqPuIl76T890AtQHA-68" value="Fecha_Ingreso" style="ellipse;whiteSpace=wrap;html=1;align=center;fillColor=#d5e8d4;strokeColor=#82b366;" vertex="1" parent="1">
          <mxGeometry x="20" y="565" width="100" height="40" as="geometry" />
        </mxCell>
        <mxCell id="gojzqPuIl76T890AtQHA-69" value="Nombre" style="ellipse;shape=doubleEllipse;margin=3;whiteSpace=wrap;html=1;align=center;fillColor=#d5e8d4;strokeColor=#82b366;" vertex="1" parent="1">
          <mxGeometry x="640" y="485" width="100" height="40" as="geometry" />
        </mxCell>
        <mxCell id="gojzqPuIl76T890AtQHA-70" value="" style="endArrow=none;html=1;rounded=0;entryX=0;entryY=0.5;entryDx=0;entryDy=0;" edge="1" parent="1" target="gojzqPuIl76T890AtQHA-69">
          <mxGeometry relative="1" as="geometry">
            <mxPoint x="600" y="505" as="sourcePoint" />
            <mxPoint x="610" y="515" as="targetPoint" />
          </mxGeometry>
        </mxCell>
        <mxCell id="gojzqPuIl76T890AtQHA-71" value="Sueldo" style="ellipse;whiteSpace=wrap;html=1;align=center;fillColor=#d5e8d4;strokeColor=#82b366;" vertex="1" parent="1">
          <mxGeometry x="20" y="485" width="100" height="40" as="geometry" />
        </mxCell>
        <mxCell id="gojzqPuIl76T890AtQHA-72" value="Fecha_Nacimiento" style="ellipse;whiteSpace=wrap;html=1;align=center;fillColor=#d5e8d4;strokeColor=#82b366;" vertex="1" parent="1">
          <mxGeometry x="20" y="525" width="100" height="40" as="geometry" />
        </mxCell>
        <mxCell id="gojzqPuIl76T890AtQHA-73" value="Nombre_Pila" style="ellipse;whiteSpace=wrap;html=1;align=center;fillColor=#d5e8d4;strokeColor=#82b366;" vertex="1" parent="1">
          <mxGeometry x="800" y="445" width="100" height="40" as="geometry" />
        </mxCell>
        <mxCell id="gojzqPuIl76T890AtQHA-74" value="Apellido_1" style="ellipse;whiteSpace=wrap;html=1;align=center;fillColor=#d5e8d4;strokeColor=#82b366;" vertex="1" parent="1">
          <mxGeometry x="800" y="485" width="100" height="40" as="geometry" />
        </mxCell>
        <mxCell id="gojzqPuIl76T890AtQHA-75" value="Apellido_2" style="ellipse;whiteSpace=wrap;html=1;align=center;fillColor=#d5e8d4;strokeColor=#82b366;" vertex="1" parent="1">
          <mxGeometry x="800" y="525" width="100" height="40" as="geometry" />
        </mxCell>
        <mxCell id="gojzqPuIl76T890AtQHA-76" value="" style="endArrow=none;html=1;rounded=0;exitX=1;exitY=0.5;exitDx=0;exitDy=0;entryX=0;entryY=0.5;entryDx=0;entryDy=0;" edge="1" parent="1" source="gojzqPuIl76T890AtQHA-69" target="gojzqPuIl76T890AtQHA-73">
          <mxGeometry relative="1" as="geometry">
            <mxPoint x="660" y="520" as="sourcePoint" />
            <mxPoint x="820" y="520" as="targetPoint" />
          </mxGeometry>
        </mxCell>
        <mxCell id="gojzqPuIl76T890AtQHA-77" value="" style="endArrow=none;html=1;rounded=0;exitX=1;exitY=0.5;exitDx=0;exitDy=0;entryX=0;entryY=0.5;entryDx=0;entryDy=0;" edge="1" parent="1" source="gojzqPuIl76T890AtQHA-69" target="gojzqPuIl76T890AtQHA-74">
          <mxGeometry relative="1" as="geometry">
            <mxPoint x="750" y="515" as="sourcePoint" />
            <mxPoint x="810" y="475" as="targetPoint" />
          </mxGeometry>
        </mxCell>
        <mxCell id="gojzqPuIl76T890AtQHA-78" value="" style="endArrow=none;html=1;rounded=0;exitX=1;exitY=0.5;exitDx=0;exitDy=0;entryX=0;entryY=0.5;entryDx=0;entryDy=0;" edge="1" parent="1" source="gojzqPuIl76T890AtQHA-69" target="gojzqPuIl76T890AtQHA-75">
          <mxGeometry relative="1" as="geometry">
            <mxPoint x="750" y="515" as="sourcePoint" />
            <mxPoint x="810" y="515" as="targetPoint" />
          </mxGeometry>
        </mxCell>
        <mxCell id="gojzqPuIl76T890AtQHA-79" value="" style="endArrow=none;html=1;rounded=0;entryX=0;entryY=0.5;entryDx=0;entryDy=0;" edge="1" parent="1" target="gojzqPuIl76T890AtQHA-7">
          <mxGeometry relative="1" as="geometry">
            <mxPoint x="160" y="505" as="sourcePoint" />
            <mxPoint x="340" y="504.91999999999996" as="targetPoint" />
          </mxGeometry>
        </mxCell>
        <mxCell id="gojzqPuIl76T890AtQHA-82" value="" style="endArrow=none;html=1;rounded=0;" edge="1" parent="1">
          <mxGeometry relative="1" as="geometry">
            <mxPoint x="160" y="425" as="sourcePoint" />
            <mxPoint x="160" y="585" as="targetPoint" />
          </mxGeometry>
        </mxCell>
        <mxCell id="gojzqPuIl76T890AtQHA-83" value="" style="endArrow=none;html=1;rounded=0;exitX=1;exitY=0.5;exitDx=0;exitDy=0;" edge="1" parent="1" source="gojzqPuIl76T890AtQHA-66">
          <mxGeometry relative="1" as="geometry">
            <mxPoint x="80" y="540" as="sourcePoint" />
            <mxPoint x="160" y="425" as="targetPoint" />
          </mxGeometry>
        </mxCell>
        <mxCell id="gojzqPuIl76T890AtQHA-84" value="" style="endArrow=none;html=1;rounded=0;exitX=1;exitY=0.5;exitDx=0;exitDy=0;" edge="1" parent="1">
          <mxGeometry relative="1" as="geometry">
            <mxPoint x="120" y="464.86" as="sourcePoint" />
            <mxPoint x="160" y="464.86" as="targetPoint" />
          </mxGeometry>
        </mxCell>
        <mxCell id="gojzqPuIl76T890AtQHA-85" value="" style="endArrow=none;html=1;rounded=0;exitX=1;exitY=0.5;exitDx=0;exitDy=0;" edge="1" parent="1">
          <mxGeometry relative="1" as="geometry">
            <mxPoint x="120" y="504.86" as="sourcePoint" />
            <mxPoint x="160" y="504.86" as="targetPoint" />
          </mxGeometry>
        </mxCell>
        <mxCell id="gojzqPuIl76T890AtQHA-86" value="" style="endArrow=none;html=1;rounded=0;exitX=1;exitY=0.5;exitDx=0;exitDy=0;" edge="1" parent="1">
          <mxGeometry relative="1" as="geometry">
            <mxPoint x="120" y="544.86" as="sourcePoint" />
            <mxPoint x="160" y="544.86" as="targetPoint" />
          </mxGeometry>
        </mxCell>
        <mxCell id="gojzqPuIl76T890AtQHA-87" value="" style="endArrow=none;html=1;rounded=0;exitX=1;exitY=0.5;exitDx=0;exitDy=0;" edge="1" parent="1" source="gojzqPuIl76T890AtQHA-68">
          <mxGeometry relative="1" as="geometry">
            <mxPoint x="150" y="584" as="sourcePoint" />
            <mxPoint x="160" y="585" as="targetPoint" />
          </mxGeometry>
        </mxCell>
        <mxCell id="gojzqPuIl76T890AtQHA-88" value="DNI" style="ellipse;whiteSpace=wrap;html=1;align=center;fillColor=#f8cecc;strokeColor=#b85450;" vertex="1" parent="1">
          <mxGeometry x="-160" y="840" width="100" height="40" as="geometry" />
        </mxCell>
        <mxCell id="gojzqPuIl76T890AtQHA-89" value="Año_Inicio" style="ellipse;whiteSpace=wrap;html=1;align=center;fillColor=#d5e8d4;strokeColor=#82b366;" vertex="1" parent="1">
          <mxGeometry x="-60" y="840" width="100" height="40" as="geometry" />
        </mxCell>
        <mxCell id="gojzqPuIl76T890AtQHA-90" value="DNI" style="ellipse;whiteSpace=wrap;html=1;align=center;fillColor=#f8cecc;strokeColor=#b85450;" vertex="1" parent="1">
          <mxGeometry x="827" y="735" width="100" height="40" as="geometry" />
        </mxCell>
        <mxCell id="gojzqPuIl76T890AtQHA-91" value="Universidad" style="ellipse;whiteSpace=wrap;html=1;align=center;fillColor=#d5e8d4;strokeColor=#82b366;" vertex="1" parent="1">
          <mxGeometry x="827" y="775" width="100" height="40" as="geometry" />
        </mxCell>
        <mxCell id="gojzqPuIl76T890AtQHA-92" value="DNI" style="ellipse;whiteSpace=wrap;html=1;align=center;fillColor=#f8cecc;strokeColor=#b85450;" vertex="1" parent="1">
          <mxGeometry x="160" y="710" width="100" height="40" as="geometry" />
        </mxCell>
        <mxCell id="gojzqPuIl76T890AtQHA-94" value="DNI" style="ellipse;whiteSpace=wrap;html=1;align=center;fillColor=#f8cecc;strokeColor=#b85450;" vertex="1" parent="1">
          <mxGeometry x="464" y="840" width="100" height="40" as="geometry" />
        </mxCell>
        <mxCell id="gojzqPuIl76T890AtQHA-95" value="Título" style="ellipse;whiteSpace=wrap;html=1;align=center;fillColor=#d5e8d4;strokeColor=#82b366;" vertex="1" parent="1">
          <mxGeometry x="464" y="880" width="100" height="40" as="geometry" />
        </mxCell>
        <mxCell id="gojzqPuIl76T890AtQHA-96" value="" style="endArrow=none;html=1;rounded=0;exitX=0.5;exitY=0;exitDx=0;exitDy=0;entryX=0;entryY=1;entryDx=0;entryDy=0;" edge="1" parent="1" source="gojzqPuIl76T890AtQHA-88" target="gojzqPuIl76T890AtQHA-2">
          <mxGeometry relative="1" as="geometry">
            <mxPoint x="-60" y="800" as="sourcePoint" />
            <mxPoint x="-40" y="800" as="targetPoint" />
          </mxGeometry>
        </mxCell>
        <mxCell id="gojzqPuIl76T890AtQHA-97" value="" style="endArrow=none;html=1;rounded=0;exitX=0.5;exitY=0;exitDx=0;exitDy=0;entryX=0;entryY=1;entryDx=0;entryDy=0;" edge="1" parent="1" source="gojzqPuIl76T890AtQHA-89" target="gojzqPuIl76T890AtQHA-2">
          <mxGeometry relative="1" as="geometry">
            <mxPoint x="10" y="765" as="sourcePoint" />
            <mxPoint x="64" y="785" as="targetPoint" />
          </mxGeometry>
        </mxCell>
        <mxCell id="gojzqPuIl76T890AtQHA-99" value="" style="endArrow=none;html=1;rounded=0;exitX=0.5;exitY=1;exitDx=0;exitDy=0;entryX=0;entryY=0.5;entryDx=0;entryDy=0;" edge="1" parent="1" source="gojzqPuIl76T890AtQHA-92" target="gojzqPuIl76T890AtQHA-8">
          <mxGeometry relative="1" as="geometry">
            <mxPoint x="220" y="825" as="sourcePoint" />
            <mxPoint x="264" y="785" as="targetPoint" />
          </mxGeometry>
        </mxCell>
        <mxCell id="gojzqPuIl76T890AtQHA-102" value="" style="endArrow=none;html=1;rounded=0;exitX=1;exitY=0.5;exitDx=0;exitDy=0;entryX=0;entryY=0.5;entryDx=0;entryDy=0;" edge="1" parent="1" source="gojzqPuIl76T890AtQHA-10" target="gojzqPuIl76T890AtQHA-90">
          <mxGeometry relative="1" as="geometry">
            <mxPoint x="594" y="795" as="sourcePoint" />
            <mxPoint x="644" y="770" as="targetPoint" />
          </mxGeometry>
        </mxCell>
        <mxCell id="gojzqPuIl76T890AtQHA-103" value="" style="endArrow=none;html=1;rounded=0;exitX=1;exitY=0.5;exitDx=0;exitDy=0;entryX=0;entryY=0.5;entryDx=0;entryDy=0;" edge="1" parent="1" source="gojzqPuIl76T890AtQHA-10" target="gojzqPuIl76T890AtQHA-91">
          <mxGeometry relative="1" as="geometry">
            <mxPoint x="784" y="785" as="sourcePoint" />
            <mxPoint x="837" y="765" as="targetPoint" />
          </mxGeometry>
        </mxCell>
        <mxCell id="gojzqPuIl76T890AtQHA-104" value="" style="endArrow=none;html=1;rounded=0;entryX=0.5;entryY=0;entryDx=0;entryDy=0;" edge="1" parent="1" target="gojzqPuIl76T890AtQHA-33">
          <mxGeometry relative="1" as="geometry">
            <mxPoint x="414" y="260" as="sourcePoint" />
            <mxPoint x="510" y="270" as="targetPoint" />
          </mxGeometry>
        </mxCell>
        <mxCell id="gojzqPuIl76T890AtQHA-106" value="" style="endArrow=none;html=1;rounded=0;exitX=0.5;exitY=1;exitDx=0;exitDy=0;" edge="1" parent="1" source="gojzqPuIl76T890AtQHA-36">
          <mxGeometry relative="1" as="geometry">
            <mxPoint x="424" y="270" as="sourcePoint" />
            <mxPoint x="314" y="260" as="targetPoint" />
          </mxGeometry>
        </mxCell>
        <mxCell id="gojzqPuIl76T890AtQHA-107" value="" style="endArrow=none;html=1;rounded=0;exitX=0.5;exitY=1;exitDx=0;exitDy=0;" edge="1" parent="1">
          <mxGeometry relative="1" as="geometry">
            <mxPoint x="413.93" y="240" as="sourcePoint" />
            <mxPoint x="413.93" y="260" as="targetPoint" />
          </mxGeometry>
        </mxCell>
        <mxCell id="gojzqPuIl76T890AtQHA-108" value="" style="endArrow=none;html=1;rounded=0;exitX=0.5;exitY=1;exitDx=0;exitDy=0;" edge="1" parent="1">
          <mxGeometry relative="1" as="geometry">
            <mxPoint x="520" y="240" as="sourcePoint" />
            <mxPoint x="520" y="260" as="targetPoint" />
          </mxGeometry>
        </mxCell>
        <mxCell id="gojzqPuIl76T890AtQHA-109" value="" style="endArrow=none;html=1;rounded=0;" edge="1" parent="1">
          <mxGeometry relative="1" as="geometry">
            <mxPoint x="313.5" y="260" as="sourcePoint" />
            <mxPoint x="520" y="260" as="targetPoint" />
          </mxGeometry>
        </mxCell>
        <mxCell id="gojzqPuIl76T890AtQHA-110" value="Dirige" style="shape=rhombus;html=1;dashed=0;whiteSpace=wrap;perimeter=rhombusPerimeter;fillColor=#fff2cc;strokeColor=#d6b656;fontSize=8;" vertex="1" parent="1">
          <mxGeometry x="-140" y="270" width="60" height="50" as="geometry" />
        </mxCell>
        <mxCell id="gojzqPuIl76T890AtQHA-112" value="" style="endArrow=none;html=1;rounded=0;exitX=0.5;exitY=1;exitDx=0;exitDy=0;" edge="1" parent="1" source="gojzqPuIl76T890AtQHA-110">
          <mxGeometry relative="1" as="geometry">
            <mxPoint x="-110.08" y="325" as="sourcePoint" />
            <mxPoint x="-110.08" y="775" as="targetPoint" />
          </mxGeometry>
        </mxCell>
        <mxCell id="gojzqPuIl76T890AtQHA-113" value="" style="endArrow=none;html=1;rounded=0;entryX=0;entryY=0.5;entryDx=0;entryDy=0;exitX=1;exitY=0.5;exitDx=0;exitDy=0;" edge="1" parent="1" source="gojzqPuIl76T890AtQHA-110" target="gojzqPuIl76T890AtQHA-33">
          <mxGeometry relative="1" as="geometry">
            <mxPoint x="40" y="430" as="sourcePoint" />
            <mxPoint x="200" y="430" as="targetPoint" />
          </mxGeometry>
        </mxCell>
        <mxCell id="gojzqPuIl76T890AtQHA-118" value="0:N" style="edgeLabel;html=1;align=center;verticalAlign=middle;resizable=0;points=[];" vertex="1" connectable="0" parent="gojzqPuIl76T890AtQHA-113">
          <mxGeometry x="-0.014" y="-2" relative="1" as="geometry">
            <mxPoint as="offset" />
          </mxGeometry>
        </mxCell>
        <mxCell id="gojzqPuIl76T890AtQHA-117" value="" style="endArrow=none;html=1;rounded=0;entryX=0;entryY=0.5;entryDx=0;entryDy=0;" edge="1" parent="1" target="gojzqPuIl76T890AtQHA-2">
          <mxGeometry relative="1" as="geometry">
            <mxPoint x="-110" y="775" as="sourcePoint" />
            <mxPoint x="180" y="710" as="targetPoint" />
          </mxGeometry>
        </mxCell>
        <mxCell id="gojzqPuIl76T890AtQHA-119" value="1:M" style="edgeLabel;html=1;align=center;verticalAlign=middle;resizable=0;points=[];" vertex="1" connectable="0" parent="gojzqPuIl76T890AtQHA-117">
          <mxGeometry x="0.0935" y="-2" relative="1" as="geometry">
            <mxPoint as="offset" />
          </mxGeometry>
        </mxCell>
        <mxCell id="gojzqPuIl76T890AtQHA-120" value="Año_Inicio" style="ellipse;whiteSpace=wrap;html=1;align=center;fillColor=#d5e8d4;strokeColor=#82b366;" vertex="1" parent="1">
          <mxGeometry x="464" y="920" width="100" height="40" as="geometry" />
        </mxCell>
        <mxCell id="gojzqPuIl76T890AtQHA-121" value="Produce" style="shape=rhombus;html=1;dashed=0;whiteSpace=wrap;perimeter=rhombusPerimeter;fillColor=#fff2cc;strokeColor=#d6b656;fontSize=8;" vertex="1" parent="1">
          <mxGeometry x="84" y="936" width="60" height="50" as="geometry" />
        </mxCell>
        <mxCell id="gojzqPuIl76T890AtQHA-122" value="Programa" style="html=1;dashed=0;whiteSpace=wrap;fillColor=#dae8fc;strokeColor=#6c8ebf;" vertex="1" parent="1">
          <mxGeometry x="354" y="1100" width="120" height="50" as="geometry" />
        </mxCell>
        <mxCell id="gojzqPuIl76T890AtQHA-123" value="Anuncio" style="html=1;dashed=0;whiteSpace=wrap;fillColor=#dae8fc;strokeColor=#6c8ebf;" vertex="1" parent="1">
          <mxGeometry x="800" y="1350" width="120" height="50" as="geometry" />
        </mxCell>
        <mxCell id="gojzqPuIl76T890AtQHA-124" value="Emisión" style="shape=ext;margin=3;double=1;whiteSpace=wrap;html=1;align=center;fillColor=#dae8fc;strokeColor=#6c8ebf;" vertex="1" parent="1">
          <mxGeometry x="354" y="1350" width="120" height="50" as="geometry" />
        </mxCell>
        <mxCell id="gojzqPuIl76T890AtQHA-125" value="" style="endArrow=none;html=1;rounded=0;exitX=1;exitY=0.5;exitDx=0;exitDy=0;" edge="1" parent="1" source="gojzqPuIl76T890AtQHA-33">
          <mxGeometry relative="1" as="geometry">
            <mxPoint x="460" y="400" as="sourcePoint" />
            <mxPoint x="1000" y="295" as="targetPoint" />
          </mxGeometry>
        </mxCell>
        <mxCell id="gojzqPuIl76T890AtQHA-127" value="Emite" style="shape=rhombus;html=1;dashed=0;whiteSpace=wrap;perimeter=rhombusPerimeter;fillColor=#fff2cc;strokeColor=#d6b656;fontSize=8;" vertex="1" parent="1">
          <mxGeometry x="970" y="895" width="60" height="50" as="geometry" />
        </mxCell>
        <mxCell id="gojzqPuIl76T890AtQHA-128" value="" style="endArrow=none;html=1;rounded=0;exitX=0.5;exitY=0;exitDx=0;exitDy=0;" edge="1" parent="1" source="gojzqPuIl76T890AtQHA-127">
          <mxGeometry relative="1" as="geometry">
            <mxPoint x="999.94" y="335" as="sourcePoint" />
            <mxPoint x="999.94" y="295" as="targetPoint" />
          </mxGeometry>
        </mxCell>
        <mxCell id="gojzqPuIl76T890AtQHA-157" value="1:1" style="edgeLabel;html=1;align=center;verticalAlign=middle;resizable=0;points=[];" vertex="1" connectable="0" parent="gojzqPuIl76T890AtQHA-128">
          <mxGeometry x="-0.8179" relative="1" as="geometry">
            <mxPoint as="offset" />
          </mxGeometry>
        </mxCell>
        <mxCell id="gojzqPuIl76T890AtQHA-129" value="" style="endArrow=none;html=1;rounded=0;exitX=0.5;exitY=1;exitDx=0;exitDy=0;entryX=0.5;entryY=0;entryDx=0;entryDy=0;" edge="1" parent="1" source="gojzqPuIl76T890AtQHA-2" target="gojzqPuIl76T890AtQHA-121">
          <mxGeometry relative="1" as="geometry">
            <mxPoint x="140" y="980" as="sourcePoint" />
            <mxPoint x="300" y="980" as="targetPoint" />
          </mxGeometry>
        </mxCell>
        <mxCell id="gojzqPuIl76T890AtQHA-132" value="1:1" style="edgeLabel;html=1;align=center;verticalAlign=middle;resizable=0;points=[];" vertex="1" connectable="0" parent="gojzqPuIl76T890AtQHA-129">
          <mxGeometry x="-0.0288" y="1" relative="1" as="geometry">
            <mxPoint as="offset" />
          </mxGeometry>
        </mxCell>
        <mxCell id="gojzqPuIl76T890AtQHA-130" value="" style="endArrow=none;html=1;rounded=0;exitX=0.5;exitY=1;exitDx=0;exitDy=0;" edge="1" parent="1" source="gojzqPuIl76T890AtQHA-121">
          <mxGeometry relative="1" as="geometry">
            <mxPoint x="114" y="991" as="sourcePoint" />
            <mxPoint x="114" y="1125" as="targetPoint" />
          </mxGeometry>
        </mxCell>
        <mxCell id="gojzqPuIl76T890AtQHA-131" value="" style="endArrow=none;html=1;rounded=0;entryX=0;entryY=0.5;entryDx=0;entryDy=0;" edge="1" parent="1" target="gojzqPuIl76T890AtQHA-122">
          <mxGeometry relative="1" as="geometry">
            <mxPoint x="114" y="1125" as="sourcePoint" />
            <mxPoint x="347.9999999999998" y="1125" as="targetPoint" />
          </mxGeometry>
        </mxCell>
        <mxCell id="gojzqPuIl76T890AtQHA-133" value="0:N" style="edgeLabel;html=1;align=center;verticalAlign=middle;resizable=0;points=[];" vertex="1" connectable="0" parent="gojzqPuIl76T890AtQHA-131">
          <mxGeometry x="0.0833" y="-1" relative="1" as="geometry">
            <mxPoint as="offset" />
          </mxGeometry>
        </mxCell>
        <mxCell id="gojzqPuIl76T890AtQHA-134" value="Pertenece" style="shape=rhombus;html=1;dashed=0;whiteSpace=wrap;perimeter=rhombusPerimeter;fillColor=#fff2cc;strokeColor=#d6b656;fontSize=8;" vertex="1" parent="1">
          <mxGeometry x="384" y="1230" width="60" height="50" as="geometry" />
        </mxCell>
        <mxCell id="gojzqPuIl76T890AtQHA-135" value="" style="endArrow=none;html=1;rounded=0;exitX=0.5;exitY=1;exitDx=0;exitDy=0;entryX=0.5;entryY=0;entryDx=0;entryDy=0;" edge="1" parent="1" source="gojzqPuIl76T890AtQHA-122" target="gojzqPuIl76T890AtQHA-134">
          <mxGeometry relative="1" as="geometry">
            <mxPoint x="420" y="1240" as="sourcePoint" />
            <mxPoint x="580" y="1240" as="targetPoint" />
          </mxGeometry>
        </mxCell>
        <mxCell id="gojzqPuIl76T890AtQHA-137" value="1:1" style="edgeLabel;html=1;align=center;verticalAlign=middle;resizable=0;points=[];" vertex="1" connectable="0" parent="gojzqPuIl76T890AtQHA-135">
          <mxGeometry x="0.0833" relative="1" as="geometry">
            <mxPoint as="offset" />
          </mxGeometry>
        </mxCell>
        <mxCell id="gojzqPuIl76T890AtQHA-136" value="" style="endArrow=none;html=1;rounded=0;exitX=0.5;exitY=0;exitDx=0;exitDy=0;entryX=0.5;entryY=1;entryDx=0;entryDy=0;" edge="1" parent="1" source="gojzqPuIl76T890AtQHA-124" target="gojzqPuIl76T890AtQHA-134">
          <mxGeometry relative="1" as="geometry">
            <mxPoint x="424" y="1160" as="sourcePoint" />
            <mxPoint x="424" y="1240" as="targetPoint" />
          </mxGeometry>
        </mxCell>
        <mxCell id="gojzqPuIl76T890AtQHA-138" value="1:N" style="edgeLabel;html=1;align=center;verticalAlign=middle;resizable=0;points=[];" vertex="1" connectable="0" parent="gojzqPuIl76T890AtQHA-136">
          <mxGeometry x="0.1143" y="1" relative="1" as="geometry">
            <mxPoint as="offset" />
          </mxGeometry>
        </mxCell>
        <mxCell id="gojzqPuIl76T890AtQHA-139" value="Emite" style="shape=rhombus;html=1;dashed=0;whiteSpace=wrap;perimeter=rhombusPerimeter;fillColor=#fff2cc;strokeColor=#d6b656;fontSize=8;" vertex="1" parent="1">
          <mxGeometry x="610" y="1350" width="60" height="50" as="geometry" />
        </mxCell>
        <mxCell id="gojzqPuIl76T890AtQHA-140" value="" style="endArrow=none;html=1;rounded=0;exitX=1;exitY=0.5;exitDx=0;exitDy=0;entryX=0;entryY=0.5;entryDx=0;entryDy=0;" edge="1" parent="1" source="gojzqPuIl76T890AtQHA-124" target="gojzqPuIl76T890AtQHA-139">
          <mxGeometry relative="1" as="geometry">
            <mxPoint x="550" y="1390" as="sourcePoint" />
            <mxPoint x="710" y="1390" as="targetPoint" />
          </mxGeometry>
        </mxCell>
        <mxCell id="gojzqPuIl76T890AtQHA-142" value="1:N" style="edgeLabel;html=1;align=center;verticalAlign=middle;resizable=0;points=[];" vertex="1" connectable="0" parent="gojzqPuIl76T890AtQHA-140">
          <mxGeometry x="0.0605" y="-1" relative="1" as="geometry">
            <mxPoint as="offset" />
          </mxGeometry>
        </mxCell>
        <mxCell id="gojzqPuIl76T890AtQHA-141" value="" style="endArrow=none;html=1;rounded=0;exitX=1;exitY=0.5;exitDx=0;exitDy=0;entryX=0;entryY=0.5;entryDx=0;entryDy=0;" edge="1" parent="1" source="gojzqPuIl76T890AtQHA-139" target="gojzqPuIl76T890AtQHA-123">
          <mxGeometry relative="1" as="geometry">
            <mxPoint x="484" y="1385" as="sourcePoint" />
            <mxPoint x="620" y="1385" as="targetPoint" />
          </mxGeometry>
        </mxCell>
        <mxCell id="gojzqPuIl76T890AtQHA-143" value="0:M" style="edgeLabel;html=1;align=center;verticalAlign=middle;resizable=0;points=[];" vertex="1" connectable="0" parent="gojzqPuIl76T890AtQHA-141">
          <mxGeometry x="-0.0472" y="-1" relative="1" as="geometry">
            <mxPoint as="offset" />
          </mxGeometry>
        </mxCell>
        <mxCell id="gojzqPuIl76T890AtQHA-144" value="Presenta" style="shape=rhombus;html=1;dashed=0;whiteSpace=wrap;perimeter=rhombusPerimeter;fillColor=#fff2cc;strokeColor=#d6b656;fontSize=8;" vertex="1" parent="1">
          <mxGeometry x="284" y="936" width="60" height="50" as="geometry" />
        </mxCell>
        <mxCell id="gojzqPuIl76T890AtQHA-145" value="" style="endArrow=none;html=1;rounded=0;exitX=0.5;exitY=1;exitDx=0;exitDy=0;entryX=0.5;entryY=0;entryDx=0;entryDy=0;" edge="1" parent="1" source="gojzqPuIl76T890AtQHA-8" target="gojzqPuIl76T890AtQHA-144">
          <mxGeometry relative="1" as="geometry">
            <mxPoint x="300" y="1020" as="sourcePoint" />
            <mxPoint x="460" y="1020" as="targetPoint" />
          </mxGeometry>
        </mxCell>
        <mxCell id="gojzqPuIl76T890AtQHA-148" value="0:1" style="edgeLabel;html=1;align=center;verticalAlign=middle;resizable=0;points=[];" vertex="1" connectable="0" parent="gojzqPuIl76T890AtQHA-145">
          <mxGeometry x="0.0546" relative="1" as="geometry">
            <mxPoint as="offset" />
          </mxGeometry>
        </mxCell>
        <mxCell id="gojzqPuIl76T890AtQHA-146" value="" style="endArrow=none;html=1;rounded=0;exitX=0.5;exitY=1;exitDx=0;exitDy=0;" edge="1" parent="1" source="gojzqPuIl76T890AtQHA-144">
          <mxGeometry relative="1" as="geometry">
            <mxPoint x="314.0000000000002" y="981" as="sourcePoint" />
            <mxPoint x="314" y="1375" as="targetPoint" />
          </mxGeometry>
        </mxCell>
        <mxCell id="gojzqPuIl76T890AtQHA-149" value="1:N" style="edgeLabel;html=1;align=center;verticalAlign=middle;resizable=0;points=[];" vertex="1" connectable="0" parent="gojzqPuIl76T890AtQHA-146">
          <mxGeometry x="0.2986" y="-1" relative="1" as="geometry">
            <mxPoint as="offset" />
          </mxGeometry>
        </mxCell>
        <mxCell id="gojzqPuIl76T890AtQHA-147" value="" style="endArrow=none;html=1;rounded=0;entryX=0;entryY=0.5;entryDx=0;entryDy=0;" edge="1" parent="1" target="gojzqPuIl76T890AtQHA-124">
          <mxGeometry relative="1" as="geometry">
            <mxPoint x="314" y="1375" as="sourcePoint" />
            <mxPoint x="357.9999999999998" y="1375" as="targetPoint" />
          </mxGeometry>
        </mxCell>
        <mxCell id="gojzqPuIl76T890AtQHA-150" value="Trabaja" style="shape=rhombus;html=1;dashed=0;whiteSpace=wrap;perimeter=rhombusPerimeter;fillColor=#fff2cc;strokeColor=#d6b656;fontSize=8;" vertex="1" parent="1">
          <mxGeometry x="684" y="1100" width="60" height="50" as="geometry" />
        </mxCell>
        <mxCell id="gojzqPuIl76T890AtQHA-151" value="" style="endArrow=none;html=1;rounded=0;entryX=0;entryY=0.5;entryDx=0;entryDy=0;exitX=1;exitY=0.5;exitDx=0;exitDy=0;" edge="1" parent="1" source="gojzqPuIl76T890AtQHA-122" target="gojzqPuIl76T890AtQHA-150">
          <mxGeometry relative="1" as="geometry">
            <mxPoint x="690" y="1030" as="sourcePoint" />
            <mxPoint x="850" y="1030" as="targetPoint" />
          </mxGeometry>
        </mxCell>
        <mxCell id="gojzqPuIl76T890AtQHA-159" value="0:N" style="edgeLabel;html=1;align=center;verticalAlign=middle;resizable=0;points=[];" vertex="1" connectable="0" parent="gojzqPuIl76T890AtQHA-151">
          <mxGeometry x="0.0755" y="1" relative="1" as="geometry">
            <mxPoint as="offset" />
          </mxGeometry>
        </mxCell>
        <mxCell id="gojzqPuIl76T890AtQHA-152" value="" style="endArrow=none;html=1;rounded=0;entryX=0.5;entryY=1;entryDx=0;entryDy=0;exitX=0.5;exitY=0;exitDx=0;exitDy=0;" edge="1" parent="1" source="gojzqPuIl76T890AtQHA-150" target="gojzqPuIl76T890AtQHA-10">
          <mxGeometry relative="1" as="geometry">
            <mxPoint x="484" y="1135" as="sourcePoint" />
            <mxPoint x="694" y="1135" as="targetPoint" />
          </mxGeometry>
        </mxCell>
        <mxCell id="gojzqPuIl76T890AtQHA-161" value="1:M" style="edgeLabel;html=1;align=center;verticalAlign=middle;resizable=0;points=[];" vertex="1" connectable="0" parent="gojzqPuIl76T890AtQHA-152">
          <mxGeometry x="-0.819" relative="1" as="geometry">
            <mxPoint as="offset" />
          </mxGeometry>
        </mxCell>
        <mxCell id="gojzqPuIl76T890AtQHA-153" value="" style="endArrow=none;html=1;rounded=0;exitX=0.5;exitY=0;exitDx=0;exitDy=0;" edge="1" parent="1" source="gojzqPuIl76T890AtQHA-122">
          <mxGeometry relative="1" as="geometry">
            <mxPoint x="500" y="1040" as="sourcePoint" />
            <mxPoint x="414" y="1040" as="targetPoint" />
          </mxGeometry>
        </mxCell>
        <mxCell id="gojzqPuIl76T890AtQHA-154" value="" style="endArrow=none;html=1;rounded=0;entryX=0.5;entryY=1;entryDx=0;entryDy=0;" edge="1" parent="1" target="gojzqPuIl76T890AtQHA-127">
          <mxGeometry relative="1" as="geometry">
            <mxPoint x="1000" y="1040" as="sourcePoint" />
            <mxPoint x="424" y="1050" as="targetPoint" />
          </mxGeometry>
        </mxCell>
        <mxCell id="gojzqPuIl76T890AtQHA-156" value="1:N" style="edgeLabel;html=1;align=center;verticalAlign=middle;resizable=0;points=[];" vertex="1" connectable="0" parent="gojzqPuIl76T890AtQHA-154">
          <mxGeometry x="0.0145" y="-1" relative="1" as="geometry">
            <mxPoint as="offset" />
          </mxGeometry>
        </mxCell>
        <mxCell id="gojzqPuIl76T890AtQHA-155" value="" style="endArrow=none;html=1;rounded=0;" edge="1" parent="1">
          <mxGeometry relative="1" as="geometry">
            <mxPoint x="1000" y="1040" as="sourcePoint" />
            <mxPoint x="414" y="1040" as="targetPoint" />
          </mxGeometry>
        </mxCell>
        <mxCell id="gojzqPuIl76T890AtQHA-162" value="" style="endArrow=none;html=1;rounded=0;entryX=0.5;entryY=1;entryDx=0;entryDy=0;exitX=0.5;exitY=0;exitDx=0;exitDy=0;" edge="1" parent="1" source="gojzqPuIl76T890AtQHA-94" target="gojzqPuIl76T890AtQHA-9">
          <mxGeometry relative="1" as="geometry">
            <mxPoint x="390" y="850" as="sourcePoint" />
            <mxPoint x="550" y="850" as="targetPoint" />
          </mxGeometry>
        </mxCell>
        <mxCell id="gojzqPuIl76T890AtQHA-163" value="ID_Programa" style="ellipse;whiteSpace=wrap;html=1;align=center;fillColor=#f8cecc;strokeColor=#b85450;" vertex="1" parent="1">
          <mxGeometry x="480" y="1180" width="100" height="40" as="geometry" />
        </mxCell>
        <mxCell id="gojzqPuIl76T890AtQHA-164" value="Periodicidad" style="ellipse;whiteSpace=wrap;html=1;align=center;fillColor=#d5e8d4;strokeColor=#82b366;" vertex="1" parent="1">
          <mxGeometry x="580" y="1180" width="100" height="40" as="geometry" />
        </mxCell>
        <mxCell id="gojzqPuIl76T890AtQHA-165" value="Tipo" style="ellipse;whiteSpace=wrap;html=1;align=center;fillColor=#d5e8d4;strokeColor=#82b366;" vertex="1" parent="1">
          <mxGeometry x="680" y="1180" width="100" height="40" as="geometry" />
        </mxCell>
        <mxCell id="gojzqPuIl76T890AtQHA-166" value="Nombre" style="ellipse;whiteSpace=wrap;html=1;align=center;fillColor=#d5e8d4;strokeColor=#82b366;" vertex="1" parent="1">
          <mxGeometry x="480" y="1220" width="100" height="40" as="geometry" />
        </mxCell>
        <mxCell id="gojzqPuIl76T890AtQHA-167" value="Fecha_Último" style="ellipse;whiteSpace=wrap;html=1;align=center;fillColor=#d5e8d4;strokeColor=#82b366;" vertex="1" parent="1">
          <mxGeometry x="680" y="1220" width="100" height="40" as="geometry" />
        </mxCell>
        <mxCell id="gojzqPuIl76T890AtQHA-168" value="Fecha_Primero" style="ellipse;whiteSpace=wrap;html=1;align=center;fillColor=#d5e8d4;strokeColor=#82b366;" vertex="1" parent="1">
          <mxGeometry x="580" y="1220" width="100" height="40" as="geometry" />
        </mxCell>
        <mxCell id="gojzqPuIl76T890AtQHA-169" value="" style="endArrow=none;html=1;rounded=0;exitX=1;exitY=1;exitDx=0;exitDy=0;entryX=0;entryY=0;entryDx=0;entryDy=0;" edge="1" parent="1" source="gojzqPuIl76T890AtQHA-122" target="gojzqPuIl76T890AtQHA-163">
          <mxGeometry relative="1" as="geometry">
            <mxPoint x="480" y="1190" as="sourcePoint" />
            <mxPoint x="640" y="1190" as="targetPoint" />
          </mxGeometry>
        </mxCell>
        <mxCell id="gojzqPuIl76T890AtQHA-170" value="Nº_Emisión" style="ellipse;whiteSpace=wrap;html=1;align=center;fillColor=#f8cecc;strokeColor=#b85450;" vertex="1" parent="1">
          <mxGeometry x="264" y="1480" width="100" height="40" as="geometry" />
        </mxCell>
        <mxCell id="gojzqPuIl76T890AtQHA-173" value="Duración" style="ellipse;whiteSpace=wrap;html=1;align=center;fillColor=#d5e8d4;strokeColor=#82b366;" vertex="1" parent="1">
          <mxGeometry x="464" y="1480" width="100" height="40" as="geometry" />
        </mxCell>
        <mxCell id="gojzqPuIl76T890AtQHA-174" value="Fecha_Hora" style="ellipse;whiteSpace=wrap;html=1;align=center;fillColor=#d5e8d4;strokeColor=#82b366;" vertex="1" parent="1">
          <mxGeometry x="364" y="1480" width="100" height="40" as="geometry" />
        </mxCell>
        <mxCell id="gojzqPuIl76T890AtQHA-176" value="" style="endArrow=none;html=1;rounded=0;exitX=0.5;exitY=1;exitDx=0;exitDy=0;" edge="1" parent="1" source="gojzqPuIl76T890AtQHA-124">
          <mxGeometry relative="1" as="geometry">
            <mxPoint x="360" y="1450" as="sourcePoint" />
            <mxPoint x="414" y="1450" as="targetPoint" />
          </mxGeometry>
        </mxCell>
        <mxCell id="gojzqPuIl76T890AtQHA-177" value="" style="endArrow=none;html=1;rounded=0;" edge="1" parent="1">
          <mxGeometry relative="1" as="geometry">
            <mxPoint x="514" y="1450" as="sourcePoint" />
            <mxPoint x="314" y="1450" as="targetPoint" />
          </mxGeometry>
        </mxCell>
        <mxCell id="gojzqPuIl76T890AtQHA-178" value="" style="endArrow=none;html=1;rounded=0;exitX=0.5;exitY=0;exitDx=0;exitDy=0;" edge="1" parent="1" source="gojzqPuIl76T890AtQHA-170">
          <mxGeometry relative="1" as="geometry">
            <mxPoint x="340" y="1450" as="sourcePoint" />
            <mxPoint x="314" y="1450" as="targetPoint" />
          </mxGeometry>
        </mxCell>
        <mxCell id="gojzqPuIl76T890AtQHA-179" value="" style="endArrow=none;html=1;rounded=0;exitX=0.5;exitY=0;exitDx=0;exitDy=0;" edge="1" parent="1">
          <mxGeometry relative="1" as="geometry">
            <mxPoint x="413.92" y="1480" as="sourcePoint" />
            <mxPoint x="413.92" y="1450" as="targetPoint" />
          </mxGeometry>
        </mxCell>
        <mxCell id="gojzqPuIl76T890AtQHA-180" value="" style="endArrow=none;html=1;rounded=0;exitX=0.5;exitY=0;exitDx=0;exitDy=0;" edge="1" parent="1" source="gojzqPuIl76T890AtQHA-173">
          <mxGeometry relative="1" as="geometry">
            <mxPoint x="513.92" y="1470" as="sourcePoint" />
            <mxPoint x="514" y="1450" as="targetPoint" />
          </mxGeometry>
        </mxCell>
        <mxCell id="gojzqPuIl76T890AtQHA-181" value="Fecha_Inicio" style="ellipse;whiteSpace=wrap;html=1;align=center;fillColor=#d5e8d4;strokeColor=#82b366;" vertex="1" parent="1">
          <mxGeometry x="-260" y="255" width="100" height="40" as="geometry" />
        </mxCell>
        <mxCell id="gojzqPuIl76T890AtQHA-182" value="Fecha_Fin" style="ellipse;whiteSpace=wrap;html=1;align=center;fillColor=#d5e8d4;strokeColor=#82b366;" vertex="1" parent="1">
          <mxGeometry x="-260" y="295" width="100" height="40" as="geometry" />
        </mxCell>
        <mxCell id="gojzqPuIl76T890AtQHA-183" value="" style="endArrow=none;html=1;rounded=0;exitX=1;exitY=0.5;exitDx=0;exitDy=0;entryX=0;entryY=0.5;entryDx=0;entryDy=0;" edge="1" parent="1" source="gojzqPuIl76T890AtQHA-181" target="gojzqPuIl76T890AtQHA-110">
          <mxGeometry relative="1" as="geometry">
            <mxPoint x="-210" y="290" as="sourcePoint" />
            <mxPoint x="-50" y="290" as="targetPoint" />
          </mxGeometry>
        </mxCell>
        <mxCell id="gojzqPuIl76T890AtQHA-184" value="" style="endArrow=none;html=1;rounded=0;exitX=1;exitY=0.5;exitDx=0;exitDy=0;entryX=0;entryY=0.5;entryDx=0;entryDy=0;" edge="1" parent="1" source="gojzqPuIl76T890AtQHA-182" target="gojzqPuIl76T890AtQHA-110">
          <mxGeometry relative="1" as="geometry">
            <mxPoint x="-150" y="285" as="sourcePoint" />
            <mxPoint x="-130" y="305" as="targetPoint" />
          </mxGeometry>
        </mxCell>
        <mxCell id="gojzqPuIl76T890AtQHA-185" value="Precio" style="ellipse;whiteSpace=wrap;html=1;align=center;fillColor=#d5e8d4;strokeColor=#82b366;" vertex="1" parent="1">
          <mxGeometry x="590" y="1290" width="100" height="40" as="geometry" />
        </mxCell>
        <mxCell id="gojzqPuIl76T890AtQHA-186" value="Hora" style="ellipse;whiteSpace=wrap;html=1;align=center;fillColor=#d5e8d4;strokeColor=#82b366;" vertex="1" parent="1">
          <mxGeometry x="590" y="1420" width="100" height="40" as="geometry" />
        </mxCell>
        <mxCell id="gojzqPuIl76T890AtQHA-187" value="" style="endArrow=none;html=1;rounded=0;exitX=0.5;exitY=1;exitDx=0;exitDy=0;entryX=0.5;entryY=0;entryDx=0;entryDy=0;" edge="1" parent="1" source="gojzqPuIl76T890AtQHA-185" target="gojzqPuIl76T890AtQHA-139">
          <mxGeometry relative="1" as="geometry">
            <mxPoint x="590" y="1410" as="sourcePoint" />
            <mxPoint x="750" y="1410" as="targetPoint" />
          </mxGeometry>
        </mxCell>
        <mxCell id="gojzqPuIl76T890AtQHA-188" value="" style="endArrow=none;html=1;rounded=0;exitX=0.5;exitY=0;exitDx=0;exitDy=0;entryX=0.5;entryY=1;entryDx=0;entryDy=0;" edge="1" parent="1" source="gojzqPuIl76T890AtQHA-186" target="gojzqPuIl76T890AtQHA-139">
          <mxGeometry relative="1" as="geometry">
            <mxPoint x="650" y="1340" as="sourcePoint" />
            <mxPoint x="650" y="1360" as="targetPoint" />
          </mxGeometry>
        </mxCell>
        <mxCell id="gojzqPuIl76T890AtQHA-189" value="ID_Anuncio" style="ellipse;whiteSpace=wrap;html=1;align=center;fillColor=#f8cecc;strokeColor=#b85450;" vertex="1" parent="1">
          <mxGeometry x="1000" y="1275" width="100" height="40" as="geometry" />
        </mxCell>
        <mxCell id="gojzqPuIl76T890AtQHA-190" value="Producto" style="ellipse;whiteSpace=wrap;html=1;align=center;fillColor=#d5e8d4;strokeColor=#82b366;" vertex="1" parent="1">
          <mxGeometry x="1000" y="1315" width="100" height="40" as="geometry" />
        </mxCell>
        <mxCell id="gojzqPuIl76T890AtQHA-191" value="Coste" style="ellipse;whiteSpace=wrap;html=1;align=center;fillColor=#d5e8d4;strokeColor=#82b366;" vertex="1" parent="1">
          <mxGeometry x="1000" y="1355" width="100" height="40" as="geometry" />
        </mxCell>
        <mxCell id="gojzqPuIl76T890AtQHA-192" value="Duración" style="ellipse;whiteSpace=wrap;html=1;align=center;fillColor=#d5e8d4;strokeColor=#82b366;" vertex="1" parent="1">
          <mxGeometry x="1000" y="1395" width="100" height="40" as="geometry" />
        </mxCell>
        <mxCell id="gojzqPuIl76T890AtQHA-193" value="Empresa" style="ellipse;whiteSpace=wrap;html=1;align=center;fillColor=#d5e8d4;strokeColor=#82b366;" vertex="1" parent="1">
          <mxGeometry x="1000" y="1435" width="100" height="40" as="geometry" />
        </mxCell>
        <mxCell id="gojzqPuIl76T890AtQHA-194" value="" style="endArrow=none;html=1;rounded=0;exitX=1;exitY=0.5;exitDx=0;exitDy=0;" edge="1" parent="1" source="gojzqPuIl76T890AtQHA-123">
          <mxGeometry relative="1" as="geometry">
            <mxPoint x="920" y="1400" as="sourcePoint" />
            <mxPoint x="980" y="1375" as="targetPoint" />
          </mxGeometry>
        </mxCell>
        <mxCell id="gojzqPuIl76T890AtQHA-195" value="" style="endArrow=none;html=1;rounded=0;" edge="1" parent="1">
          <mxGeometry relative="1" as="geometry">
            <mxPoint x="980" y="1455" as="sourcePoint" />
            <mxPoint x="980" y="1295" as="targetPoint" />
          </mxGeometry>
        </mxCell>
        <mxCell id="gojzqPuIl76T890AtQHA-196" value="" style="endArrow=none;html=1;rounded=0;entryX=0;entryY=0.5;entryDx=0;entryDy=0;" edge="1" parent="1" target="gojzqPuIl76T890AtQHA-189">
          <mxGeometry relative="1" as="geometry">
            <mxPoint x="980" y="1295" as="sourcePoint" />
            <mxPoint x="1060" y="1380" as="targetPoint" />
          </mxGeometry>
        </mxCell>
        <mxCell id="gojzqPuIl76T890AtQHA-197" value="" style="endArrow=none;html=1;rounded=0;entryX=0;entryY=0.5;entryDx=0;entryDy=0;" edge="1" parent="1">
          <mxGeometry relative="1" as="geometry">
            <mxPoint x="980" y="1334.91" as="sourcePoint" />
            <mxPoint x="1000" y="1334.91" as="targetPoint" />
          </mxGeometry>
        </mxCell>
        <mxCell id="gojzqPuIl76T890AtQHA-198" value="" style="endArrow=none;html=1;rounded=0;entryX=0;entryY=0.5;entryDx=0;entryDy=0;" edge="1" parent="1">
          <mxGeometry relative="1" as="geometry">
            <mxPoint x="980" y="1374.91" as="sourcePoint" />
            <mxPoint x="1000" y="1374.91" as="targetPoint" />
          </mxGeometry>
        </mxCell>
        <mxCell id="gojzqPuIl76T890AtQHA-199" value="" style="endArrow=none;html=1;rounded=0;entryX=0;entryY=0.5;entryDx=0;entryDy=0;" edge="1" parent="1">
          <mxGeometry relative="1" as="geometry">
            <mxPoint x="980" y="1414.91" as="sourcePoint" />
            <mxPoint x="1000" y="1414.91" as="targetPoint" />
          </mxGeometry>
        </mxCell>
        <mxCell id="gojzqPuIl76T890AtQHA-200" value="" style="endArrow=none;html=1;rounded=0;entryX=0;entryY=0.5;entryDx=0;entryDy=0;" edge="1" parent="1">
          <mxGeometry relative="1" as="geometry">
            <mxPoint x="980" y="1454.91" as="sourcePoint" />
            <mxPoint x="1000" y="1454.91" as="targetPoint" />
          </mxGeometry>
        </mxCell>
      </root>
    </mxGraphModel>
  </diagram>
</mxfile>
